<svg xmlns="http://www.w3.org/2000/svg" width="40" height="39.97" viewBox="0 0 40 39.97">
  <defs>
    <style>
      .cls-1 {
        fill: #ff7373;
        fill-rule: evenodd;
      }
    </style>
  </defs>
  <path id="_53" data-name="53" class="cls-1" d="M561.34,3932.58a1.993,1.993,0,0,0-2.76-.02l-3.48,3.24-4.62-5.12a1.932,1.932,0,0,0-1.54-.66,2,2,0,0,0-1.5.72l-5.94,7.28h25.48Zm13.66,9.43H535V3970h40v-8h-6a6,6,0,1,1,0-11.99h6v-8ZM567,3956a2,2,0,0,0,2,2h6v-4h-6A2,2,0,0,0,567,3956Z" transform="translate(-535 -3930.03)"/>
</svg>
