<svg xmlns="http://www.w3.org/2000/svg" width="39.312" height="39.63" viewBox="0 0 39.312 39.63">
  <defs>
    <style>
      .cls-1 {
        fill: #ff7373;
        fill-rule: evenodd;
      }
    </style>
  </defs>
  <path id="_32" data-name="32" class="cls-1" d="M750.843,3969.89c-4.555,0-10.591-3.08-16.075-8.61-7.915-7.96-10.79-17.09-6.686-21.22l3.909-3.94a3.916,3.916,0,0,1,5.554,0l4.166,4.19a3.983,3.983,0,0,1,0,5.6l-1.792,1.8c0,0.61.679,2.67,3.18,5.19s4.539,3.2,5.146,3.2h0l1.792-1.81a3.916,3.916,0,0,1,5.554,0l4.165,4.2a3.97,3.97,0,0,1,0,5.59l-3.909,3.94A6.81,6.81,0,0,1,750.843,3969.89Zm0.8-35.5a11.794,11.794,0,0,1,9.819,9.73,11.952,11.952,0,0,1-1.842,8.63l2.793,2.82a15.828,15.828,0,0,0-10.2-25.1,15.7,15.7,0,0,0-11.747,2.99l2.8,2.82A11.794,11.794,0,0,1,751.641,3934.39Zm4.061,13.73h-7.854v-9.89h3.927v5.94H755.7v3.95Z" transform="translate(-726.219 -3930.28)"/>
</svg>
